<svg id="Camada_1" data-name="Camada 1" xmlns="http://www.w3.org/2000/svg" viewBox="0 0 344.48 67.36"><defs><style>.cls-1{fill:#fff;}</style></defs><title>geekhunterlogo1</title><g id="marca"><path id="geekhunter" class="cls-1" d="M141,42.66a9.31,9.31,0,0,1-4.14-.91,9.77,9.77,0,0,1-3.24-2.49,11.71,11.71,0,0,1-2.08-3.67,13.76,13.76,0,0,1,0-9,12,12,0,0,1,2.17-3.73,10.13,10.13,0,0,1,3.32-2.52,10,10,0,0,1,4.28-.91A9,9,0,0,1,146,20.6a9.75,9.75,0,0,1,3.26,3.19v-4h5.07V41.45a10.54,10.54,0,0,1-.93,4.51,9.47,9.47,0,0,1-2.63,3.38,11.74,11.74,0,0,1-4,2.13,16.43,16.43,0,0,1-5,.74A14.25,14.25,0,0,1,135.47,51a12.58,12.58,0,0,1-4.36-3.49l3.16-3.08a8.91,8.91,0,0,0,3.28,2.51,10,10,0,0,0,4.23.92,9.14,9.14,0,0,0,2.58-.37,6,6,0,0,0,2.17-1.15,5.59,5.59,0,0,0,1.48-2,7,7,0,0,0,.54-2.86V38.59a7.67,7.67,0,0,1-3.17,3A9.32,9.32,0,0,1,141,42.66ZM143,38a5.57,5.57,0,0,0,1.83-.3,6,6,0,0,0,1.58-.83,6.66,6.66,0,0,0,1.28-1.21,5.33,5.33,0,0,0,.87-1.48V28.78a7.1,7.1,0,0,0-2.43-3.21,5.76,5.76,0,0,0-3.47-1.21,5.12,5.12,0,0,0-2.45.58,5.94,5.94,0,0,0-1.89,1.56,7.08,7.08,0,0,0-1.19,2.24,8.14,8.14,0,0,0-.42,2.6,7,7,0,0,0,.48,2.6,6.82,6.82,0,0,0,1.32,2.13,6.21,6.21,0,0,0,2,1.43A5.94,5.94,0,0,0,143,38ZM170.15,43a12.43,12.43,0,0,1-4.94-.94A11.05,11.05,0,0,1,159,35.77a11.88,11.88,0,0,1-.85-4.47,12.66,12.66,0,0,1,.82-4.58,11.14,11.14,0,0,1,6.19-6.35,12.57,12.57,0,0,1,5-1,12.27,12.27,0,0,1,5,1,11.37,11.37,0,0,1,3.73,2.56,10.86,10.86,0,0,1,2.34,3.73,12.27,12.27,0,0,1,.8,4.42c0,.38,0,.74,0,1.09a3.92,3.92,0,0,1-.11.86H164.34a6.79,6.79,0,0,0,.65,2.39,6,6,0,0,0,1.35,1.78,5.91,5.91,0,0,0,1.86,1.13,6.17,6.17,0,0,0,2.17.39,6.77,6.77,0,0,0,3.28-.85,4.47,4.47,0,0,0,2.1-2.23l5,1.38a10.21,10.21,0,0,1-4,4.28A12.49,12.49,0,0,1,170.15,43Zm5.91-13.71a6.08,6.08,0,0,0-1.89-4.1,5.77,5.77,0,0,0-4.06-1.54,5.73,5.73,0,0,0-4,1.56A6,6,0,0,0,164.84,27a6.34,6.34,0,0,0-.59,2.3ZM196.19,43a12.48,12.48,0,0,1-4.95-.94,11.32,11.32,0,0,1-3.77-2.53,11.14,11.14,0,0,1-2.41-3.73,11.88,11.88,0,0,1-.85-4.47,12.66,12.66,0,0,1,.83-4.58,11.08,11.08,0,0,1,6.18-6.35,12.57,12.57,0,0,1,5-1,12.27,12.27,0,0,1,5,1,11.37,11.37,0,0,1,3.73,2.56,10.72,10.72,0,0,1,2.34,3.73,12.28,12.28,0,0,1,.81,4.42c0,.38,0,.74,0,1.09a3.92,3.92,0,0,1-.11.86H190.37a7,7,0,0,0,.65,2.39,6,6,0,0,0,1.35,1.78,5.91,5.91,0,0,0,1.86,1.13,6.17,6.17,0,0,0,2.17.39,6.77,6.77,0,0,0,3.28-.85,4.43,4.43,0,0,0,2.1-2.23l5,1.38a10.15,10.15,0,0,1-4,4.28A12.48,12.48,0,0,1,196.19,43Zm5.9-13.71a6.08,6.08,0,0,0-1.89-4.1,5.76,5.76,0,0,0-4.06-1.54,5.73,5.73,0,0,0-4,1.56A6,6,0,0,0,190.87,27a6.14,6.14,0,0,0-.58,2.3Zm25.08,13.27-6.6-9.84-3.12,3.08v6.76h-5.82V10.87h5.82V30.08l9.11-10.23h6.2l-8.5,9.63,9.11,13.05Zm28.2,0h-3V29.91a10.12,10.12,0,0,0-1.33-5.77,4.42,4.42,0,0,0-3.88-1.91,6.63,6.63,0,0,0-2.49.5,9.33,9.33,0,0,0-4.21,3.41,8.46,8.46,0,0,0-1.2,2.56V42.53h-2.95V10.87h2.95V25.05a10.56,10.56,0,0,1,3.78-4,9.52,9.52,0,0,1,5.12-1.48,7,7,0,0,1,3.32.72,5.8,5.8,0,0,1,2.21,2A9.12,9.12,0,0,1,255,25.33a18.82,18.82,0,0,1,.39,4Zm13.1.44a6.29,6.29,0,0,1-5.38-2.45c-1.22-1.64-1.82-4.07-1.82-7.31V19.93h3V32.69q0,7.66,5.25,7.67a7.77,7.77,0,0,0,2.56-.43,8.05,8.05,0,0,0,2.32-1.26,10.39,10.39,0,0,0,1.91-2,9.62,9.62,0,0,0,1.36-2.56V19.93h2.95V38.72c0,.81.37,1.21,1.09,1.21v2.6a9,9,0,0,1-1.22.13,2.59,2.59,0,0,1-1.71-.6,1.91,1.91,0,0,1-.72-1.52V37.41A10.83,10.83,0,0,1,268.47,43Zm37.79-.44h-2.95V29.91q0-4-1.17-5.86a4,4,0,0,0-3.65-1.82,7.5,7.5,0,0,0-2.6.48,9.32,9.32,0,0,0-2.43,1.34,9.64,9.64,0,0,0-2,2.06,9.07,9.07,0,0,0-1.28,2.59V42.53h-2.95V19.93H290v5.12a10.42,10.42,0,0,1,1.71-2.23,11.27,11.27,0,0,1,4.95-2.89,10.88,10.88,0,0,1,2.92-.39,6.52,6.52,0,0,1,3.19.7,5.36,5.36,0,0,1,2.06,2,8.75,8.75,0,0,1,1.13,3.08,21.68,21.68,0,0,1,.35,4Zm16.88-1.08-.76.35c-.33.14-.72.29-1.15.43s-.93.27-1.48.39a8.06,8.06,0,0,1-1.73.17,6,6,0,0,1-1.82-.26,4.18,4.18,0,0,1-1.52-.8,3.87,3.87,0,0,1-1-1.37,4.39,4.39,0,0,1-.39-1.9V22.27h-3.13V19.93h3.13V12.3h2.95v7.63h5.2v2.34h-5.2V37.63a2.37,2.37,0,0,0,.86,1.85,3,3,0,0,0,1.87.58,5.59,5.59,0,0,0,2.21-.41,10.12,10.12,0,0,0,1.22-.59ZM336.5,43a10.91,10.91,0,0,1-4.56-.94,11.23,11.23,0,0,1-3.6-2.55A11.91,11.91,0,0,1,326,35.72a12.23,12.23,0,0,1-.85-4.55,12,12,0,0,1,.85-4.49A11.48,11.48,0,0,1,328.34,23a11.83,11.83,0,0,1,3.58-2.52A11,11,0,0,1,344.53,23a11.89,11.89,0,0,1,3.12,8.11c0,.24,0,.47,0,.7a2.49,2.49,0,0,1-.07.48h-19.3a9.55,9.55,0,0,0,.84,3.36,9.73,9.73,0,0,0,1.83,2.67,7.94,7.94,0,0,0,2.56,1.75,7.67,7.67,0,0,0,3.1.63,8.24,8.24,0,0,0,2.21-.3,8.68,8.68,0,0,0,2-.83,6.68,6.68,0,0,0,1.62-1.28,5.54,5.54,0,0,0,1.11-1.67l2.56.7a7.52,7.52,0,0,1-1.48,2.28,10.17,10.17,0,0,1-2.21,1.77,10.83,10.83,0,0,1-2.78,1.18,12,12,0,0,1-3.12.41ZM344.83,30a9.18,9.18,0,0,0-.85-3.32,8.77,8.77,0,0,0-1.82-2.58,7.91,7.91,0,0,0-2.58-1.69,8,8,0,0,0-3.12-.61,8.15,8.15,0,0,0-5.71,2.3,8.28,8.28,0,0,0-1.78,2.6,9.93,9.93,0,0,0-.8,3.3Zm18.53-7.5a9.24,9.24,0,0,0-5.21,1.64,8.31,8.31,0,0,0-3.12,4.3V42.53h-2.95V19.93h2.77v5.42a11.81,11.81,0,0,1,3.08-4,6.35,6.35,0,0,1,4.13-1.59h.73a2.94,2.94,0,0,1,.57.05Z" transform="translate(-18.87 -6.5)"/><g id="simbolo"><path id="Fill-2" class="cls-1" d="M107.46,32.71a14,14,0,1,0-14,14,13.94,13.94,0,0,0,14-14M42.7,19A14,14,0,0,0,28.55,32.71a14,14,0,0,0,28,.24A14,14,0,0,0,42.7,19m21.39,2.63a24,24,0,0,1,2,17.18C63.3,49.92,53,57,40.67,56.32c-10.56-.59-20-9.43-21.26-20.24-1-9.31-.2-18.7-.43-28,0-1.17,1.54-1.52,1.54-1.52H29s1.7.44,1.62,1.68,0,2.75,0,4.45a32.54,32.54,0,0,1,9.3-3A23.51,23.51,0,0,1,54,12.09a3.22,3.22,0,0,0,3.37,0,23.52,23.52,0,0,1,21.87,0,3.52,3.52,0,0,0,3.59-.1c16.43-8.06,35.31,3.94,34.64,22a23.18,23.18,0,0,1-15.12,20.8c-9.77,3.5-18.73,1.83-26-5.68-7-7.14-8.29-15.68-4.86-25,1.08-2.94,1.08-3.08-2.09-3.28a9.12,9.12,0,0,0-5.26.84" transform="translate(-18.87 -6.5)"/><path id="Fill-3" class="cls-1" d="M35.67,25.65c-2.56,2.51-4.47,6.73-1.79,10.57,1.39-7.69,6.36-11,14-11.27-2.76-3-8.76-2.67-12.17.7" transform="translate(-18.87 -6.5)"/><path id="Fill-4" class="cls-1" d="M86.7,25.65c-2.56,2.51-4.46,6.73-1.79,10.57,1.39-7.69,6.36-11,14-11.27-2.76-3-8.75-2.67-12.17.7" transform="translate(-18.87 -6.5)"/></g></g><path class="cls-1" d="M177.94,55.68h3.93c3.09,0,5.18,1,5.18,4.06S185,64,182,64h-2.27v5.47h-1.75Zm3.8,6.89c2.41,0,3.56-.87,3.56-2.83s-1.23-2.64-3.65-2.64h-2v5.47Z" transform="translate(-18.87 -6.5)"/><path class="cls-1" d="M188.41,64.37c0-3.4,2.23-5.37,4.73-5.37s4.73,2,4.73,5.37-2.23,5.34-4.73,5.34S188.41,67.75,188.41,64.37Zm7.67,0c0-2.34-1.19-3.93-2.94-3.93s-2.95,1.59-2.95,3.93,1.19,3.9,2.95,3.9S196.08,66.71,196.08,64.37Z" transform="translate(-18.87 -6.5)"/><path class="cls-1" d="M199.25,59.25H201l1.51,5.9c.22,1,.41,1.89.61,2.85h.08c.22-1,.44-1.9.69-2.85l1.58-5.9h1.69l1.59,5.9c.25,1,.47,1.89.71,2.85h.08c.22-1,.41-1.88.63-2.85l1.49-5.9h1.65l-2.74,10.21h-2.1L207,64c-.24-1-.44-1.91-.69-2.94h-.08c-.22,1-.43,2-.7,3l-1.43,5.46h-2Z" transform="translate(-18.87 -6.5)"/><path class="cls-1" d="M214.71,64.37c0-3.32,2.24-5.37,4.59-5.37,2.6,0,4.07,1.87,4.07,4.79a5.38,5.38,0,0,1-.08,1h-6.87c.12,2.17,1.45,3.57,3.39,3.57a4.45,4.45,0,0,0,2.54-.82l.62,1.13a6,6,0,0,1-3.37,1.06C216.88,69.71,214.71,67.72,214.71,64.37Zm7.14-.83c0-2-.92-3.16-2.52-3.16-1.43,0-2.71,1.15-2.92,3.16Z" transform="translate(-18.87 -6.5)"/><path class="cls-1" d="M225.88,59.25h1.43l.14,1.86h.06a3.52,3.52,0,0,1,2.9-2.11,2.41,2.41,0,0,1,1.09.21l-.32,1.52a2.86,2.86,0,0,0-1-.17c-.86,0-1.89.62-2.58,2.35v6.55h-1.73Z" transform="translate(-18.87 -6.5)"/><path class="cls-1" d="M232.2,64.37c0-3.32,2.24-5.37,4.59-5.37,2.61,0,4.07,1.87,4.07,4.79a5.38,5.38,0,0,1-.08,1h-6.87c.12,2.17,1.45,3.57,3.39,3.57a4.45,4.45,0,0,0,2.54-.82l.62,1.13a6,6,0,0,1-3.37,1.06C234.37,69.71,232.2,67.72,232.2,64.37Zm7.14-.83c0-2-.92-3.16-2.52-3.16-1.43,0-2.71,1.15-2.92,3.16Z" transform="translate(-18.87 -6.5)"/><path class="cls-1" d="M242.64,64.37c0-3.31,2.09-5.37,4.42-5.37a4.17,4.17,0,0,1,2.86,1.19l-.07-1.76V54.5h1.72v15h-1.42l-.15-1.2h-.06a4.51,4.51,0,0,1-3.09,1.45C244.3,69.71,242.64,67.77,242.64,64.37Zm7.21,2.5V61.52a3.58,3.58,0,0,0-2.49-1.06c-1.63,0-2.93,1.57-2.93,3.9s1,3.9,2.8,3.9A3.55,3.55,0,0,0,249.85,66.87Z" transform="translate(-18.87 -6.5)"/><path class="cls-1" d="M260.82,68.41h-.06l-.16,1h-1.38v-15H261v4.09l-.06,1.83A5.18,5.18,0,0,1,264.1,59c2.63,0,4,2,4,5.2,0,3.48-2.09,5.51-4.42,5.51A4.58,4.58,0,0,1,260.82,68.41Zm5.55-4.19c0-2.25-.77-3.76-2.7-3.76A4.11,4.11,0,0,0,261,61.85V67.2a4,4,0,0,0,2.48,1.06C265.12,68.26,266.37,66.74,266.37,64.22Z" transform="translate(-18.87 -6.5)"/><path class="cls-1" d="M269.73,73.65l.34-1.38a2.63,2.63,0,0,0,.78.16c1.15,0,1.88-.93,2.3-2.2l.23-.75-4.09-10.23h1.78l2.08,5.65c.32.89.66,1.94,1,2.88h.08c.29-.93.58-2,.86-2.88l1.82-5.65h1.69l-3.85,11c-.72,2-1.77,3.56-3.82,3.56A3.26,3.26,0,0,1,269.73,73.65Z" transform="translate(-18.87 -6.5)"/><path class="cls-1" d="M284.94,55.68h1.75v5.77h6.41V55.68h1.75V69.46H293.1V63h-6.41v6.48h-1.75Z" transform="translate(-18.87 -6.5)"/><path class="cls-1" d="M297.83,66.81c0-2.22,1.91-3.33,6.26-3.81,0-1.31-.44-2.57-2.1-2.57a5.61,5.61,0,0,0-3.05,1.09l-.67-1.18a7.46,7.46,0,0,1,4-1.34c2.49,0,3.54,1.66,3.54,4.2v6.26h-1.43l-.14-1.22h-.06a5.41,5.41,0,0,1-3.37,1.47A2.77,2.77,0,0,1,297.83,66.81Zm6.26.16V64.14c-3.42.41-4.57,1.25-4.57,2.55s.79,1.63,1.79,1.63A4.18,4.18,0,0,0,304.09,67Z" transform="translate(-18.87 -6.5)"/><path class="cls-1" d="M309.06,66.31V60.66h-1.52V59.35l1.6-.1.2-2.86h1.45v2.86h2.76v1.41h-2.76v5.68c0,1.24.4,2,1.57,2a3.34,3.34,0,0,0,1.17-.28l.33,1.3a6,6,0,0,1-1.89.38C309.79,69.71,309.06,68.34,309.06,66.31Z" transform="translate(-18.87 -6.5)"/><path class="cls-1" d="M314.8,64.37c0-3.4,2.3-5.37,4.91-5.37a4.33,4.33,0,0,1,3,1.2l-.88,1.14a3,3,0,0,0-2-.9c-1.85,0-3.2,1.59-3.2,3.93s1.28,3.9,3.16,3.9a3.69,3.69,0,0,0,2.39-1l.75,1.16a5,5,0,0,1-3.3,1.29C316.87,69.71,314.8,67.75,314.8,64.37Z" transform="translate(-18.87 -6.5)"/><path class="cls-1" d="M325.13,54.5h1.73v4.09l-.07,2.1A4.88,4.88,0,0,1,330.18,59c2.15,0,3.12,1.39,3.12,4v6.47h-1.73V63.22c0-1.9-.57-2.72-1.92-2.72-1,0-1.77.54-2.79,1.57v7.39h-1.73Z" transform="translate(-18.87 -6.5)"/><path class="cls-1" d="M335.8,64.37c0-3.32,2.23-5.37,4.58-5.37,2.61,0,4.08,1.87,4.08,4.79a5.38,5.38,0,0,1-.08,1H337.5c.13,2.17,1.45,3.57,3.39,3.57a4.45,4.45,0,0,0,2.54-.82l.62,1.13a6,6,0,0,1-3.37,1.06C338,69.71,335.8,67.72,335.8,64.37Zm7.13-.83c0-2-.92-3.16-2.52-3.16-1.43,0-2.71,1.15-2.92,3.16Z" transform="translate(-18.87 -6.5)"/><path class="cls-1" d="M347,59.25h1.43l.15,1.86h0a3.53,3.53,0,0,1,2.9-2.11,2.38,2.38,0,0,1,1.09.21l-.32,1.52a2.86,2.86,0,0,0-1-.17c-.86,0-1.89.62-2.58,2.35v6.55H347Z" transform="translate(-18.87 -6.5)"/><path class="cls-1" d="M353,68.3l.85-1.14a4.63,4.63,0,0,0,3,1.21c1.34,0,2-.72,2-1.59,0-1-1.21-1.51-2.34-1.93-1.42-.52-3-1.23-3-2.95s1.31-2.9,3.52-2.9a5.2,5.2,0,0,1,3.18,1.15l-.83,1.11a3.85,3.85,0,0,0-2.33-.91c-1.28,0-1.88.68-1.88,1.46,0,1,1.11,1.34,2.27,1.77,1.47.56,3.11,1.16,3.11,3.1,0,1.65-1.32,3-3.72,3A6.14,6.14,0,0,1,353,68.3Z" transform="translate(-18.87 -6.5)"/></svg>