<?xml version="1.0" encoding="UTF-8" standalone="no"?>
<!-- Created with Inkscape (http://www.inkscape.org/) -->

<svg
   xmlns:dc="http://purl.org/dc/elements/1.1/"
   xmlns:cc="http://creativecommons.org/ns#"
   xmlns:rdf="http://www.w3.org/1999/02/22-rdf-syntax-ns#"
   xmlns:svg="http://www.w3.org/2000/svg"
   xmlns="http://www.w3.org/2000/svg"
   xmlns:sodipodi="http://sodipodi.sourceforge.net/DTD/sodipodi-0.dtd"
   xmlns:inkscape="http://www.inkscape.org/namespaces/inkscape"
   width="210mm"
   height="297mm"
   viewBox="0 0 210 297"
   version="1.1"
   id="svg8"
   inkscape:version="0.92.1 r15371"
   sodipodi:docname="pasqualotto.svg">
  <defs
     id="defs2" />
  <sodipodi:namedview
     id="base"
     pagecolor="#ffffff"
     bordercolor="#666666"
     borderopacity="1.0"
     inkscape:pageopacity="0.0"
     inkscape:pageshadow="2"
     inkscape:zoom="0.35"
     inkscape:cx="859.83257"
     inkscape:cy="601.5422"
     inkscape:document-units="mm"
     inkscape:current-layer="layer1"
     showgrid="false"
     showguides="true"
     inkscape:guide-bbox="true"
     inkscape:window-width="1366"
     inkscape:window-height="705"
     inkscape:window-x="-8"
     inkscape:window-y="-8"
     inkscape:window-maximized="1">
    <sodipodi:guide
       position="-219.69555,296.40191"
       orientation="1,0"
       id="guide857"
       inkscape:locked="false" />
    <sodipodi:guide
       position="-184.68324,327.93972"
       orientation="0,1"
       id="guide859"
       inkscape:locked="false" />
  </sodipodi:namedview>
  <metadata
     id="metadata5">
    <rdf:RDF>
      <cc:Work
         rdf:about="">
        <dc:format>image/svg+xml</dc:format>
        <dc:type
           rdf:resource="http://purl.org/dc/dcmitype/StillImage" />
        <dc:title></dc:title>
      </cc:Work>
    </rdf:RDF>
  </metadata>
  <g
     inkscape:label="Camada 1"
     inkscape:groupmode="layer"
     id="layer1">
    <g
       id="g981"
       style="fill:#ffffff">
      <path
         inkscape:connector-curvature="0"
         id="rect861-4-1"
         d="m 113.1564,102.22809 c -8.98783,0 -16.223814,5.12187 -16.223812,11.48405 v 0.94517 4.92476 11.48405 h 16.223812 4.15427 5.81877 c 8.98782,0 16.22381,-5.12187 16.22381,-11.48405 v -4.91856 -0.95137 -11.48405 h -16.22381 -7.36131 z"
         style="opacity:1;fill:#ffffff;fill-opacity:1;fill-rule:evenodd;stroke:none;stroke-width:0.65784734;stroke-linecap:round;stroke-linejoin:round;stroke-miterlimit:4;stroke-dasharray:none;stroke-dashoffset:0;stroke-opacity:1" />
      <path
         inkscape:connector-curvature="0"
         id="rect861"
         d="m 66.05437,57.302149 v 9.631455 1.424202 53.076344 c 0,5.33604 4.29592,9.63197 9.631968,9.63197 h 6.739641 0.857311 9.631971 v -9.63197 -1.42368 -53.076866 c 0,-5.33604 -4.295931,-9.631455 -9.631971,-9.631455 h -6.740155 -0.856797 z"
         style="opacity:1;fill:#ffffff;fill-opacity:1;fill-rule:evenodd;stroke:none;stroke-width:0.83721256;stroke-linecap:round;stroke-linejoin:round;stroke-miterlimit:4;stroke-dasharray:none;stroke-dashoffset:0;stroke-opacity:1" />
      <path
         inkscape:connector-curvature="0"
         id="rect861-4"
         d="m 96.932588,57.302149 v 14.005865 9.174117 3.553271 c 0,7.759246 6.246612,14.005864 14.005862,14.005864 h 4.82968 9.57926 14.00586 v -14.005864 -3.56154 -9.165848 c 0,-7.759246 -6.24662,-14.005865 -14.00586,-14.005865 h -8.03672 -6.37222 z"
         style="opacity:1;fill:#ffffff;fill-opacity:1;fill-rule:evenodd;stroke:none;stroke-width:0.78189677;stroke-linecap:round;stroke-linejoin:round;stroke-miterlimit:4;stroke-dasharray:none;stroke-dashoffset:0;stroke-opacity:1" />
    </g>
    <path
       style="opacity:1;fill:#ffffff;fill-opacity:1;fill-rule:evenodd;stroke:none;stroke-width:0.75214285;stroke-linecap:round;stroke-linejoin:round;stroke-miterlimit:4;stroke-dasharray:none;stroke-dashoffset:0;stroke-opacity:1"
       d="m 8.5394306,171.01348 c -0.1723496,-0.44917 -0.1323711,-26.02797 0.041116,-26.3012 0.354674,-0.55856 8.0477524,-1.00531 10.8999864,-0.63298 4.250447,0.55485 6.814934,2.2511 8.040796,5.31851 0.503132,1.25895 0.695852,3.84272 0.392224,5.25848 -0.600864,2.80174 -2.548893,5.14033 -5.125733,6.1534 -1.372915,0.53975 -4.416976,1.05332 -6.243315,1.05332 h -1.69418 v 4.72471 4.7247 h -3.098086 c -2.6507013,0 -3.1146482,-0.0432 -3.2128084,-0.29894 z M 18.79603,156.65518 c 2.667002,-0.79202 3.897886,-3.87982 2.430505,-6.09718 -0.87457,-1.32155 -3.154511,-2.00614 -5.506577,-1.65343 l -0.869633,0.13041 v 3.83118 c 0,2.10715 0.0567,3.88788 0.125995,3.95717 0.239236,0.23925 2.832232,0.1251 3.81971,-0.16815 z"
       id="path958"
       inkscape:connector-curvature="0" />
    <path
       style="opacity:1;fill:#ffffff;fill-opacity:1;fill-rule:evenodd;stroke:none;stroke-width:0.75214285;stroke-linecap:round;stroke-linejoin:round;stroke-miterlimit:4;stroke-dasharray:none;stroke-dashoffset:0;stroke-opacity:1"
       d="m 32.085545,171.59695 c -0.551172,-0.15503 -1.180015,-0.37707 -1.397434,-0.49343 -0.79806,-0.42711 -2.088933,-1.78582 -2.577383,-2.71283 -0.440854,-0.83668 -0.502004,-1.17089 -0.502803,-2.74791 -7.94e-4,-1.58033 0.06181,-1.9231 0.522679,-2.86157 1.282485,-2.61153 4.479803,-4.25101 8.974375,-4.60177 0.962197,-0.0751 1.79409,-0.20875 1.848647,-0.29703 0.17246,-0.27904 -0.429464,-1.45836 -0.902576,-1.76835 -0.249894,-0.16374 -0.943951,-0.39603 -1.542349,-0.51621 -0.911201,-0.18299 -1.338977,-0.16473 -2.63249,0.11239 -0.849472,0.18199 -2.012236,0.53029 -2.583926,0.77401 -0.882592,0.37626 -1.070573,0.40272 -1.245794,0.17535 -0.296598,-0.38486 -1.078481,-3.4484 -0.959344,-3.75886 0.273248,-0.71208 4.319481,-1.66268 7.213322,-1.69466 4.26162,-0.0471 6.808689,1.23643 8.136215,4.10007 0.72758,1.56949 0.815052,2.49941 0.887849,9.43893 l 0.06889,6.56734 H 42.6923 39.991177 l -0.214064,-0.85013 -0.214067,-0.85013 -0.928404,0.68151 c -1.863828,1.36817 -4.472652,1.88733 -6.549099,1.30328 z m 5.53784,-4.68239 c 1.122757,-0.62809 1.632546,-1.75047 1.564794,-3.44515 l -0.05289,-1.32291 -0.977696,0.0249 c -1.686523,0.043 -2.856725,0.42479 -3.668369,1.19689 -0.651861,0.6201 -0.740095,0.80786 -0.740095,1.57485 0,0.47895 0.09151,1.07166 0.203349,1.31712 0.499742,1.09682 2.304745,1.41853 3.670905,0.65428 z"
       id="path960"
       inkscape:connector-curvature="0" />
    <path
       style="opacity:1;fill:#ffffff;fill-opacity:1;fill-rule:evenodd;stroke:none;stroke-width:0.75214285;stroke-linecap:round;stroke-linejoin:round;stroke-miterlimit:4;stroke-dasharray:none;stroke-dashoffset:0;stroke-opacity:1"
       d="m 50.255647,171.59978 c -1.657829,-0.30083 -3.194299,-0.79827 -3.543144,-1.14712 -0.221658,-0.22165 -0.1836,-0.56625 0.253912,-2.29908 0.591185,-2.34145 0.435124,-2.25593 2.657716,-1.45641 1.884503,0.6779 3.973253,0.8318 4.853739,0.35763 0.707718,-0.38113 0.959318,-1.01588 0.70131,-1.76929 -0.183819,-0.53678 -1.017138,-1.0151 -3.571854,-2.05026 -3.058189,-1.23915 -4.628147,-3.11085 -4.629965,-5.51983 -0.0013,-1.65076 0.46945,-2.89181 1.543198,-4.06884 1.224124,-1.34187 2.383012,-1.92188 4.58242,-2.29347 1.693346,-0.28609 1.989669,-0.28612 3.976057,-5.3e-4 2.260566,0.32515 3.508931,0.72101 3.502615,1.11069 -0.0082,0.50613 -0.92538,3.7898 -1.110157,3.97458 -0.135922,0.13592 -0.41669,0.10157 -0.911407,-0.11149 -2.184266,-0.9407 -4.57022,-0.97239 -5.318599,-0.0707 -0.132749,0.15995 -0.214299,0.57006 -0.181221,0.91135 0.07521,0.77596 0.698889,1.22091 2.732262,1.94926 1.797399,0.64383 3.565454,1.65298 4.283977,2.44517 1.023766,1.12871 1.155629,1.5592 1.163283,3.79768 0.0066,1.93515 -0.02889,2.14011 -0.51367,2.96478 -1.631439,2.77528 -5.888577,4.10714 -10.470472,3.27571 z"
       id="path962"
       inkscape:connector-curvature="0" />
    <path
       style="opacity:1;fill:#ffffff;fill-opacity:1;fill-rule:evenodd;stroke:none;stroke-width:0.75214285;stroke-linecap:round;stroke-linejoin:round;stroke-miterlimit:4;stroke-dasharray:none;stroke-dashoffset:0;stroke-opacity:1"
       d="m 75.515499,174.22422 v -5.0257 l -0.954082,0.85781 c -2.925331,2.63012 -7.510232,2.2939 -10.401072,-0.76274 -3.662413,-3.87246 -3.535392,-11.73209 0.252301,-15.61168 1.862923,-1.90813 4.669925,-2.84907 7.154966,-2.39845 1.640411,0.29747 2.265317,0.58707 3.275015,1.51778 l 0.861859,0.79444 0.0026,-0.54379 c 0.0013,-0.29908 0.05441,-0.73724 0.11776,-0.97369 0.114366,-0.42687 0.136065,-0.42954 3.068476,-0.37798 l 2.953298,0.0519 -0.0079,0.8977 c -0.0043,0.49373 -0.02558,6.68072 -0.04725,13.74888 l -0.03936,12.85119 h -3.118305 -3.118302 z m -1.912366,-7.83556 c 0.78105,-0.43898 1.456971,-1.32888 1.728531,-2.27575 0.253606,-0.88428 0.231079,-4.35174 -0.03514,-5.40899 -0.443601,-1.7617 -2.48638,-3.02464 -4.106937,-2.53911 -1.899687,0.56916 -2.990815,2.14212 -3.174492,4.57631 -0.197091,2.61202 0.65691,4.85093 2.151076,5.6394 0.978201,0.5162 2.526466,0.51986 3.436961,0.008 z"
       id="path964"
       inkscape:connector-curvature="0" />
    <path
       style="opacity:1;fill:#ffffff;fill-opacity:1;fill-rule:evenodd;stroke:none;stroke-width:0.75214285;stroke-linecap:round;stroke-linejoin:round;stroke-miterlimit:4;stroke-dasharray:none;stroke-dashoffset:0;stroke-opacity:1"
       d="m 89.406124,171.70282 c -2.009299,-0.48863 -3.410881,-1.59509 -4.318397,-3.40911 -0.958712,-1.91635 -1.104141,-3.39306 -1.033465,-10.49394 l 0.0602,-6.04762 3.009585,-0.0522 c 2.281114,-0.0396 3.046638,0.006 3.162658,0.18899 0.08419,0.13266 0.154373,2.88369 0.155964,6.11341 0.0032,6.50251 0.105269,7.21591 1.159266,8.10279 1.562476,1.31474 4.107027,0.36939 4.693941,-1.74389 0.1153,-0.41516 0.19563,-3.15887 0.196252,-6.70321 l 0.0011,-6.00037 h 3.118305 3.118307 l 0.001,8.55171 c 8e-4,4.70344 0.0556,9.12576 0.12182,9.82738 l 0.12048,1.27567 h -2.75827 -2.758273 l -0.128289,-1.13393 c -0.07056,-0.62366 -0.181088,-1.13302 -0.24562,-1.13192 -0.06453,0.001 -0.403194,0.29623 -0.752581,0.65584 -1.647807,1.69598 -4.631484,2.55797 -6.924252,2.00041 z"
       id="path966"
       inkscape:connector-curvature="0" />
    <path
       style="opacity:1;fill:#ffffff;fill-opacity:1;fill-rule:evenodd;stroke:none;stroke-width:0.75214285;stroke-linecap:round;stroke-linejoin:round;stroke-miterlimit:4;stroke-dasharray:none;stroke-dashoffset:0;stroke-opacity:1"
       d="m 108.57506,171.62097 c -3.24273,-0.87434 -5.11353,-3.83894 -4.51573,-7.15592 0.66917,-3.713 3.95988,-5.85635 9.67901,-6.30426 1.59612,-0.12501 1.65365,-0.14571 1.65365,-0.5949 0,-0.76754 -1.0721,-1.66726 -2.31926,-1.94636 -0.92835,-0.20775 -1.31229,-0.1963 -2.73489,0.0816 -0.91021,0.17779 -2.11631,0.53349 -2.68022,0.79044 -0.5639,0.25694 -1.08249,0.40127 -1.15241,0.32073 -0.17144,-0.19749 -1.18014,-3.84415 -1.08864,-3.93565 0.31466,-0.31466 2.57665,-1.10882 3.73365,-1.31084 2.74195,-0.47875 4.16275,-0.52785 6.01665,-0.20792 3.46729,0.59835 5.3214,2.17922 6.22544,5.30797 0.26611,0.92095 0.3382,2.60627 0.48303,11.29204 l 0.0559,3.35454 h -2.77696 c -3.03154,0 -3.00638,0.01 -3.00638,-1.14939 0,-0.67088 -0.12135,-0.68595 -0.74561,-0.0926 -1.51718,1.4421 -4.61777,2.14627 -6.82727,1.55053 z m 5.39393,-4.70851 c 1.26013,-0.71371 1.61198,-1.43579 1.61198,-3.30811 v -1.60454 l -1.20237,0.12318 c -2.43885,0.24987 -3.94522,1.14221 -4.1974,2.48646 -0.17229,0.91838 0.0378,1.57194 0.70588,2.19604 0.74178,0.69292 1.97196,0.73562 3.08191,0.10697 z"
       id="path968"
       inkscape:connector-curvature="0" />
    <path
       style="opacity:1;fill:#ffffff;fill-opacity:1;fill-rule:evenodd;stroke:none;stroke-width:0.75214285;stroke-linecap:round;stroke-linejoin:round;stroke-miterlimit:4;stroke-dasharray:none;stroke-dashoffset:0;stroke-opacity:1"
       d="m 124.08544,157.06404 c 0,-12.81832 0.03,-14.2599 0.29894,-14.3631 0.38665,-0.14837 4.95599,-0.14472 5.51244,0.004 l 0.42523,0.11396 v 14.24656 14.24656 h -3.11831 -3.1183 z"
       id="path970"
       inkscape:connector-curvature="0" />
    <path
       style="opacity:1;fill:#ffffff;fill-opacity:1;fill-rule:evenodd;stroke:none;stroke-width:0.75214285;stroke-linecap:round;stroke-linejoin:round;stroke-miterlimit:4;stroke-dasharray:none;stroke-dashoffset:0;stroke-opacity:1"
       d="m 139.39347,171.58455 c -4.79103,-1.03271 -7.74851,-4.85146 -7.74851,-10.00502 0,-5.04082 2.88122,-8.99965 7.28131,-10.0046 2.9804,-0.68071 5.82496,-0.44622 8.17133,0.6736 4.028,1.92239 6.06368,7.10399 4.77322,12.14968 -0.49147,1.92161 -1.18907,3.18647 -2.46019,4.46068 -1.29523,1.29837 -2.87835,2.14464 -4.93377,2.63737 -1.82769,0.43815 -3.33855,0.46439 -5.08339,0.0883 z m 3.66002,-4.50163 c 1.43753,-0.60064 2.26328,-2.00157 2.61922,-4.44364 0.18588,-1.27536 0.1712,-1.72407 -0.0968,-2.9591 -0.60202,-2.77419 -1.62597,-3.86283 -3.63446,-3.86408 -1.42777,-7.9e-4 -2.25046,0.50799 -2.9758,1.84068 -1.02355,1.88059 -1.1017,5.5378 -0.15769,7.37924 0.94258,1.83864 2.70747,2.68954 4.24554,2.0469 z"
       id="path972"
       inkscape:connector-curvature="0" />
    <path
       style="opacity:1;fill:#ffffff;fill-opacity:1;fill-rule:evenodd;stroke:none;stroke-width:0.75214285;stroke-linecap:round;stroke-linejoin:round;stroke-miterlimit:4;stroke-dasharray:none;stroke-dashoffset:0;stroke-opacity:1"
       d="m 158.53807,171.49912 c -2.36873,-0.77541 -3.65082,-2.37149 -4.0211,-5.0059 -0.10227,-0.7276 -0.18763,-3.29447 -0.18969,-5.70415 -0.004,-4.2301 -0.0169,-4.38542 -0.38605,-4.50258 -0.21026,-0.0667 -0.65674,-0.10637 -0.99218,-0.0881 -0.33544,0.0183 -0.7162,0.0246 -0.84613,0.0141 -0.17474,-0.0142 -0.23623,-0.60712 -0.23623,-2.27798 v -2.25884 l 1.18117,-0.0563 1.18118,-0.0563 0.0945,-1.77567 c 0.0697,-1.30957 0.16891,-1.81683 0.37798,-1.93246 0.37346,-0.20655 5.14592,-1.48904 5.54108,-1.48904 0.26576,0 0.31393,0.34823 0.35946,2.59858 l 0.0526,2.59859 h 3.2128 3.2128 l 0.0543,-1.74527 c 0.0442,-1.42027 0.11457,-1.77664 0.37798,-1.91375 0.43298,-0.22537 5.19912,-1.53815 5.58439,-1.53815 0.26175,0 0.31104,0.35939 0.35634,2.59858 l 0.0526,2.59859 2.12612,0.0534 2.12612,0.0534 v 2.26167 2.26167 h -1.87443 c -1.03093,0 -2.00894,0.0516 -2.17336,0.11471 -0.26002,0.0998 -0.29894,0.65423 -0.29894,4.2583 0,5.62284 0.18414,6.02133 2.78238,6.02133 h 1.37536 v 2.35347 2.35347 l -0.70871,0.19961 c -0.38978,0.10979 -1.44096,0.25324 -2.33595,0.31879 -2.21653,0.16234 -3.8808,-0.32621 -5.22342,-1.53335 -1.77948,-1.5999 -2.12277,-3.1334 -2.12484,-9.49179 l -0.001,-4.3824 -0.8032,-0.11621 c -0.44176,-0.0639 -1.90878,-0.0904 -3.26004,-0.0588 l -2.45685,0.0574 -0.0548,3.96875 c -0.0799,5.79371 0.15144,6.3311 2.72608,6.3311 h 1.39193 v 2.33992 2.33991 l -0.8977,0.23212 c -1.65346,0.42753 -3.97516,0.42729 -5.28212,-5.3e-4 z"
       id="path974"
       inkscape:connector-curvature="0" />
    <path
       style="opacity:1;fill:#ffffff;fill-opacity:1;fill-rule:evenodd;stroke:none;stroke-width:0.75214285;stroke-linecap:round;stroke-linejoin:round;stroke-miterlimit:4;stroke-dasharray:none;stroke-dashoffset:0;stroke-opacity:1"
       d="m 185.41207,171.56628 c -3.64575,-0.77794 -6.10619,-2.97422 -7.21946,-6.44437 -0.84115,-2.62194 -0.57475,-6.45088 0.60879,-8.75008 0.94326,-1.83242 2.86968,-3.62164 4.72079,-4.3846 1.87115,-0.77122 5.0505,-1.00355 7.27604,-0.5317 3.45173,0.73183 6.06308,3.20215 7.10601,6.72222 0.46026,1.55346 0.46031,4.87482 9e-5,6.41752 -1.1214,3.75908 -3.65587,6.07406 -7.64275,6.98085 -1.61881,0.36819 -3.09191,0.3652 -4.84951,-0.01 z m 3.87084,-4.59884 c 0.85589,-0.43665 1.52971,-1.25707 2.01926,-2.45859 0.27231,-0.66833 0.34423,-1.33612 0.33585,-3.11831 -0.01,-2.02517 -0.0625,-2.37908 -0.49529,-3.30729 -0.73908,-1.58515 -1.42537,-2.13174 -2.80159,-2.23128 -1.35491,-0.098 -2.06705,0.15757 -2.81607,1.01066 -0.92774,1.05664 -1.34142,2.48213 -1.34142,4.62241 0,2.90422 0.84461,4.73168 2.54352,5.50339 0.98834,0.44894 1.64517,0.44355 2.55574,-0.021 z"
       id="path976"
       inkscape:connector-curvature="0" />
  </g>
</svg>
